<?xml version="1.0" standalone="no"?>
<!DOCTYPE svg PUBLIC "-//W3C//DTD SVG 20010904//EN"
 "http://www.w3.org/TR/2001/REC-SVG-20010904/DTD/svg10.dtd">
<svg version="1.0" xmlns="http://www.w3.org/2000/svg"
 width="1080.000000pt" height="1080.000000pt" viewBox="0 0 1080.000000 1080.000000"
 preserveAspectRatio="xMidYMid meet">

<g transform="translate(0.000000,1080.000000) scale(0.100000,-0.100000)"
fill="#000000" stroke="none">
<path d="M5210 8129 c-126 -16 -278 -73 -380 -142 -226 -154 -316 -326 -340
-652 -22 -299 -30 -352 -71 -492 -63 -215 -63 -330 -1 -446 14 -26 40 -59 59
-73 42 -32 127 -71 176 -79 20 -4 37 -10 37 -14 0 -3 -26 -24 -56 -46 -57 -41
-130 -128 -166 -199 -62 -122 -105 -282 -228 -861 -86 -406 -98 -537 -59 -653
25 -75 88 -163 158 -222 28 -24 51 -46 51 -50 0 -4 -17 -12 -38 -18 -79 -24
-337 -133 -390 -164 -29 -18 -79 -60 -111 -93 -102 -110 -143 -229 -144 -420
-1 -123 20 -365 34 -387 18 -29 21 9 9 104 -20 146 -19 408 2 474 24 75 67
159 105 203 64 76 209 152 470 247 l93 34 92 -49 c112 -60 223 -104 302 -122
l58 -13 -28 -20 c-67 -48 -154 -141 -185 -199 -49 -91 -69 -183 -76 -340 l-6
-138 -41 3 c-40 3 -41 4 -46 42 -3 22 -11 41 -17 44 -10 3 -13 -29 -13 -137 0
-119 2 -141 15 -141 12 0 15 16 15 85 l0 85 50 0 50 0 0 -39 c0 -58 12 -131
21 -131 5 0 6 76 2 169 -14 372 44 527 252 673 67 47 75 49 131 32 26 -8 78
-14 115 -14 l68 0 -35 -57 c-52 -86 -45 -153 16 -153 19 0 28 -7 37 -30 12
-33 47 -51 78 -40 14 5 25 1 38 -16 24 -31 58 -30 95 1 l30 25 6 -24 c7 -30
37 -41 66 -26 12 6 76 56 144 111 68 54 126 99 130 99 10 0 46 39 46 50 0 6
12 15 26 20 19 8 43 5 95 -11 99 -30 231 -24 308 14 l54 27 61 -44 c181 -129
220 -250 136 -423 -61 -123 -146 -169 -380 -203 -150 -22 -430 -35 -528 -25
l-71 7 -3 51 c-2 29 -8 52 -15 55 -10 3 -13 -19 -13 -86 0 -49 -3 -110 -6
-136 -6 -38 -4 -46 10 -46 13 0 16 12 16 68 l0 67 192 -3 c276 -5 534 26 655
79 44 19 68 21 283 23 147 0 236 5 238 11 1 6 -78 11 -219 13 l-220 2 40 46
c81 92 116 251 109 497 l-5 157 26 -24 c55 -50 61 -50 188 -5 378 132 767 280
800 304 42 31 -2 24 -89 -12 -51 -22 -127 -52 -168 -67 -41 -15 -93 -34 -115
-43 -69 -26 -108 -41 -182 -67 -146 -52 -214 -77 -281 -101 -37 -14 -75 -25
-85 -25 -27 0 -108 88 -144 156 -42 78 -63 161 -63 245 0 115 2 118 153 184
178 78 472 230 841 434 70 39 132 71 137 71 5 0 9 9 9 20 0 20 -1 20 -42 -3
-24 -14 -72 -40 -108 -60 -36 -19 -135 -73 -220 -119 -85 -47 -216 -117 -292
-156 l-136 -72 -7 108 c-23 385 -111 907 -185 1104 -51 137 -190 277 -334 337
l-69 29 30 16 c45 23 100 91 120 150 13 38 18 79 17 161 -1 117 4 97 -92 365
-20 58 -35 130 -47 220 -23 195 -44 304 -75 397 -72 217 -233 379 -401 402
-31 4 -71 18 -94 33 -106 70 -294 100 -475 77z m330 -44 c62 -18 90 -30 140
-61 19 -12 57 -25 84 -29 107 -15 205 -76 279 -175 96 -128 145 -271 172 -505
9 -71 21 -159 27 -195 6 -36 12 -75 12 -87 1 -12 3 -19 5 -17 2 2 12 -17 22
-44 9 -26 27 -72 38 -102 12 -30 18 -64 15 -75 -4 -14 -3 -16 4 -7 13 19 32
-84 32 -171 0 -71 -17 -150 -30 -142 -5 3 -11 -2 -14 -11 -3 -8 -2 -12 4 -9
16 10 12 -5 -11 -36 -12 -17 -26 -26 -32 -23 -7 4 -9 4 -5 -1 12 -13 -12 -35
-29 -28 -11 4 -14 2 -9 -5 3 -6 -2 -16 -13 -21 -31 -17 -33 -13 -8 15 12 14
27 40 34 57 15 41 16 142 2 168 -17 33 -28 12 -22 -44 6 -60 -12 -141 -29
-131 -7 4 -8 3 -4 -5 10 -15 -13 -43 -27 -34 -5 3 -7 1 -3 -5 3 -6 -2 -13 -13
-17 -24 -7 -71 4 -71 17 0 5 -4 7 -9 3 -15 -9 -103 18 -88 27 7 5 1 6 -14 3
-16 -4 -31 -1 -40 8 -8 7 -20 12 -28 9 -8 -3 -11 0 -7 6 3 5 -1 9 -10 8 -65
-5 -110 242 -67 365 17 48 19 49 58 49 52 0 111 34 151 87 18 23 35 39 40 35
4 -4 4 -2 1 4 -3 6 0 28 8 50 20 56 19 133 -3 174 -25 47 -94 83 -142 75 -19
-4 -50 -15 -69 -26 -18 -11 -34 -19 -35 -17 -1 2 -13 28 -26 58 -27 59 -63
107 -159 216 -72 81 -116 163 -134 253 -7 36 -18 66 -24 68 -7 3 -21 -13 -32
-34 -41 -78 -116 -138 -246 -196 -149 -66 -218 -87 -482 -147 -28 -6 -59 -11
-70 -9 -10 1 -25 -1 -33 -4 -8 -3 -26 -7 -39 -9 -39 -5 -38 -28 1 -29 18 0 29
-2 23 -5 -7 -3 -5 -83 4 -236 7 -128 14 -250 14 -270 1 -20 4 -35 7 -33 4 2
12 -19 20 -48 42 -169 153 -308 311 -393 50 -27 73 -44 57 -41 -16 2 -28 1
-28 -4 0 -10 -131 -50 -142 -43 -4 3 -8 1 -8 -4 0 -17 -108 -55 -135 -48 -14
4 -25 11 -25 17 0 6 -4 7 -10 4 -13 -8 -52 19 -42 30 4 5 2 5 -5 2 -12 -8 -55
38 -79 85 -8 16 -18 57 -22 91 -4 34 -11 61 -17 60 -17 -4 -17 -98 -1 -138 9
-21 13 -42 9 -48 -3 -6 -1 -7 5 -3 7 4 12 3 12 -3 0 -6 16 -26 35 -46 31 -30
32 -33 10 -23 -14 6 -25 16 -25 21 0 6 -3 7 -6 4 -11 -10 -45 13 -38 25 4 6 3
8 -4 4 -6 -3 -15 2 -21 11 -6 10 -11 14 -11 9 0 -6 -11 6 -25 25 -41 54 -58
129 -53 228 5 83 34 215 47 207 3 -2 7 6 7 17 2 42 40 198 46 191 4 -3 4 9 1
27 -8 55 17 368 38 464 36 164 109 283 236 387 118 97 256 159 413 187 77 14
284 6 350 -14z m-11 -468 c21 -43 55 -88 152 -198 61 -69 100 -133 119 -191 6
-21 16 -40 21 -44 6 -3 27 6 48 20 50 35 99 43 139 22 48 -25 62 -53 62 -121
0 -66 -21 -121 -65 -173 -35 -42 -67 -58 -131 -67 l-52 -7 -22 -60 c-58 -161
-188 -307 -331 -377 -108 -52 -195 -67 -294 -52 -142 21 -259 83 -353 186 -83
91 -136 212 -160 365 -14 88 -26 378 -18 433 l7 45 67 12 c99 17 317 75 393
104 159 60 242 107 309 175 l65 66 12 -48 c7 -26 22 -66 32 -90z m272 -1130
c5 -20 26 -53 46 -73 l35 -36 -18 -41 c-43 -97 -191 -199 -329 -227 -82 -17
-214 -15 -279 4 -58 17 -126 63 -159 108 -11 14 -22 49 -25 76 -5 57 4 63 73
50 192 -35 416 54 552 221 24 30 52 68 61 85 l16 31 9 -80 c4 -44 12 -97 18
-118z m329 -177 c96 -31 200 -72 230 -90 64 -38 150 -118 190 -175 70 -100
124 -291 170 -595 5 -30 15 -100 24 -155 23 -153 45 -359 49 -472 l4 -102 -66
-32 c-36 -17 -102 -47 -146 -65 -81 -35 -125 -71 -125 -103 0 -20 -71 -59
-139 -76 -39 -10 -51 -9 -104 13 -93 37 -243 72 -314 72 l-64 0 93 63 c51 35
129 89 173 121 82 60 206 126 237 126 9 0 20 5 23 10 12 19 -50 10 -102 -15
l-53 -24 0 72 c-1 202 -66 807 -87 807 -8 0 -11 -9 -8 -27 21 -123 75 -710 75
-820 0 -41 -2 -43 -77 -97 -259 -184 -331 -227 -421 -251 -49 -13 -114 -35
-146 -49 -35 -15 -77 -26 -103 -26 -25 0 -92 -12 -149 -26 l-104 -25 -79 42
c-43 23 -134 82 -202 131 -68 49 -143 102 -166 116 l-41 26 -7 95 c-7 93 -17
174 -51 386 -20 129 -20 273 1 458 16 135 15 171 -1 155 -3 -4 -15 -82 -25
-175 -24 -200 -21 -311 16 -528 26 -151 44 -365 31 -365 -4 0 -22 6 -41 14
-45 19 -125 31 -125 19 0 -5 23 -15 52 -22 74 -17 139 -51 248 -131 52 -38
148 -104 213 -147 l119 -77 -39 -17 c-105 -45 -198 -180 -192 -279 l4 -51 -40
7 c-79 13 -172 47 -290 105 -269 132 -382 267 -393 469 -5 101 17 233 114 680
110 502 140 606 214 731 47 80 141 169 218 208 72 36 235 97 285 106 36 7 37
7 37 -24 0 -71 66 -153 156 -192 180 -80 456 -25 603 119 34 34 65 76 77 104
22 56 -1 58 244 -22z m-114 -1816 c42 -8 113 -29 158 -46 97 -37 133 -38 213
-6 l60 25 7 -66 c9 -96 35 -175 84 -255 13 -21 20 -42 15 -46 -4 -4 -37 -17
-73 -29 -36 -13 -105 -45 -154 -73 -48 -28 -109 -57 -134 -64 -59 -18 -142
-17 -221 4 l-64 17 -1 48 c-1 26 -1 47 -1 47 0 0 29 -9 63 -20 69 -22 128 -25
152 -10 11 7 3 10 -29 10 -51 0 -155 25 -185 45 -23 15 -93 8 -296 -29 -143
-27 -220 -19 -220 23 0 39 73 78 222 116 124 32 174 57 205 104 29 43 19 56
-12 17 l-23 -29 -65 47 c-36 26 -91 57 -122 70 l-57 23 63 25 c54 22 128 42
224 62 45 9 120 5 191 -10z m-412 -127 c58 -27 146 -91 146 -106 0 -4 -11 -13
-25 -19 -22 -10 -31 -8 -63 11 -46 29 -136 67 -156 67 -9 0 -16 -4 -16 -10 0
-5 6 -10 13 -10 19 0 161 -70 154 -76 -3 -3 -30 -12 -60 -20 -52 -13 -59 -13
-107 6 -56 22 -70 24 -70 11 0 -5 16 -15 35 -21 39 -13 45 -26 16 -35 -11 -3
-36 -17 -57 -31 -29 -20 -46 -25 -71 -21 -45 8 -52 -10 -8 -19 26 -5 35 -11
31 -21 -3 -8 5 -25 19 -39 21 -21 33 -24 91 -24 58 0 75 -5 130 -35 65 -36 90
-65 80 -91 -8 -22 -54 -17 -137 16 -132 51 -265 81 -399 90 -157 10 -223 32
-228 74 -6 46 17 109 56 161 57 73 105 103 197 120 44 8 112 24 150 35 99 28
201 23 279 -13z m961 -314 c13 -32 19 -288 7 -309 -10 -16 -11 -16 -12 -3 0
31 -88 136 -154 185 -78 58 -77 60 45 110 97 39 104 40 114 17z m-693 -10 c22
-20 23 -56 2 -77 -23 -24 -32 -20 -79 32 -36 39 -40 48 -27 54 31 12 85 8 104
-9z m-112 -39 c44 -40 59 -76 40 -99 -22 -26 -58 -17 -98 23 -21 21 -57 49
-81 63 l-44 24 49 12 c78 18 91 16 134 -23z m-488 -47 l36 -12 -54 -74 c-30
-40 -54 -77 -54 -82 0 -15 -47 -10 -60 6 -16 19 -7 51 32 119 35 59 41 61 100
43z m124 -28 l45 -12 -27 -28 c-15 -15 -50 -61 -78 -101 -45 -62 -56 -73 -82
-73 -26 0 -29 4 -32 36 -3 30 6 48 54 112 32 43 61 77 66 77 5 0 29 -5 54 -11z
m170 -59 c1 0 -40 -43 -90 -95 -72 -74 -98 -95 -119 -95 -24 0 -27 4 -27 31 0
33 18 64 87 146 l44 52 52 -19 c29 -11 53 -20 53 -20z m174 1 c0 -16 -233
-201 -253 -201 -51 0 -25 73 51 139 49 43 58 47 86 41 35 -8 76 3 76 20 0 5 9
10 20 10 11 0 20 -4 20 -9z"/>
<path d="M5262 7394 c5 -28 90 -70 185 -90 46 -9 86 -14 89 -11 11 11 -7 27
-29 27 -55 0 -178 42 -226 77 -22 16 -23 16 -19 -3z"/>
<path d="M4915 7350 c-10 -11 -55 -39 -101 -62 -86 -44 -101 -58 -61 -58 40 0
207 106 207 132 0 15 -27 8 -45 -12z"/>
<path d="M5286 7151 c-9 -14 50 -59 88 -66 41 -8 106 17 106 41 0 11 -5 14
-17 9 -53 -21 -95 -15 -165 23 -3 1 -9 -1 -12 -7z"/>
<path d="M5054 7133 c-3 -10 -19 -55 -36 -99 -27 -74 -29 -85 -17 -110 8 -16
25 -34 39 -41 42 -21 130 -15 130 9 0 6 -15 7 -38 3 -48 -8 -89 8 -104 40 -9
21 -7 35 15 87 32 78 43 128 27 128 -6 0 -13 -8 -16 -17z"/>
<path d="M4925 7119 c-29 -14 -53 -18 -87 -15 -27 3 -48 1 -48 -4 0 -16 44
-40 75 -40 37 0 109 40 113 63 4 21 -2 21 -53 -4z"/>
<path d="M5110 6714 c-49 -15 -99 -49 -88 -59 4 -4 32 5 63 20 73 36 162 38
230 5 51 -25 73 -19 37 11 -49 39 -158 50 -242 23z"/>
</g>
</svg>
